<svg data-v-fde0c5aa="" xmlns="http://www.w3.org/2000/svg" viewBox="0 0 300 300" class="iconLeft"><!----><defs data-v-fde0c5aa=""><!----></defs><rect data-v-fde0c5aa="" fill="transparent" x="0" y="0" width="300px" height="300px" class="logo-background-square"></rect><defs data-v-fde0c5aa=""><!----></defs><g data-v-fde0c5aa="" id="69d9d984-272e-4426-a7a2-330b4aa4ca28" fill="#000000" transform="matrix(4.532317873443158,0,0,4.532317873443158,142.93022967475164,115.41841626812366)"><path d="M4.97 2.52L0 12.60L1.68 12.60L2.88 10.08L7.06 10.08L8.26 12.60L9.94 12.60ZM4.97 5.73L6.38 8.68L3.56 8.68ZM11.37 7.70C11.37 6.63 11.71 5.77 12.39 5.12C13.07 4.48 13.91 4.16 14.91 4.16C16.26 4.16 17.31 4.63 18.06 5.57L18.06 3.74C17.24 3.02 16.19 2.66 14.91 2.66C13.41 2.66 12.18 3.13 11.23 4.06C10.28 4.99 9.80 6.21 9.80 7.70C9.80 9.19 10.28 10.41 11.23 11.34C12.18 12.27 13.41 12.74 14.91 12.74C16.19 12.74 17.24 12.38 18.06 11.66L18.06 9.83C17.31 10.77 16.26 11.24 14.91 11.24C13.91 11.24 13.07 10.92 12.39 10.28C11.71 9.63 11.37 8.77 11.37 7.70ZM21.42 7.98L25.55 7.98L25.55 6.58L21.42 6.58L21.42 4.20L25.83 4.20L25.83 2.80L19.88 2.80L19.88 12.60L25.83 12.60L25.83 11.20L21.42 11.20Z"></path></g><defs data-v-fde0c5aa=""><linearGradient data-v-fde0c5aa="" gradientTransform="rotate(25)" id="925c0c98-96b6-498d-bbb4-4fa3269b57cb" x1="0%" y1="0%" x2="100%" y2="0%"><stop data-v-fde0c5aa="" offset="0%" stop-color="#0015D6" stop-opacity="1"></stop><stop data-v-fde0c5aa="" offset="100%" stop-color="#0989FB" stop-opacity="1"></stop></linearGradient></defs><g data-v-fde0c5aa="" id="b44c72f1-452d-4d44-9eed-a66335e632e4" stroke="none" fill="url(#925c0c98-96b6-498d-bbb4-4fa3269b57cb)" transform="matrix(1.0008006571566885,0,0,1.0008006571566885,34.998778423425314,100.86010514472308)"><path d="M93.935 55.962L81.878 40.918 67.132 52.737a4.188 4.188 0 0 0-.649 5.885 4.188 4.188 0 0 0 5.885.648l3.164-2.536a26.062 26.062 0 0 1-3.853 7.841c-4.07 5.659-10.099 9.393-16.978 10.516-6.88 1.123-13.783-.499-19.442-4.57a26.099 26.099 0 0 1-8.453-10.23 4.186 4.186 0 1 0-7.603 3.504A34.484 34.484 0 0 0 30.37 77.318c5.928 4.264 12.891 6.495 20.053 6.495a35.117 35.117 0 0 0 5.627-.458c9.086-1.484 17.051-6.416 22.426-13.89a34.275 34.275 0 0 0 5.62-12.39l3.306 4.124a4.177 4.177 0 0 0 3.269 1.568 4.186 4.186 0 0 0 3.264-6.805zM33.371 39.558a4.185 4.185 0 0 0-5.885-.648l-3.164 2.536a26.05 26.05 0 0 1 3.853-7.841c4.07-5.658 10.1-9.393 16.979-10.516 6.877-1.123 13.783.5 19.441 4.57a26.102 26.102 0 0 1 8.453 10.231 4.186 4.186 0 1 0 7.603-3.505 34.474 34.474 0 0 0-11.167-13.522c-15.43-11.098-37.009-7.575-48.106 7.853a34.275 34.275 0 0 0-5.62 12.39l-3.306-4.125a4.186 4.186 0 1 0-6.533 5.237l12.057 15.044 14.746-11.818a4.186 4.186 0 0 0 .649-5.886z"></path></g><!----></svg>